Source-HROTd_VROTn_SLENn_SANGn.ufo
<glyph name="exclam" format="2">
  <advance width="291"/>
  <unicode hex="0021"/>
  <outline>
    <contour>
      <point x="63" y="249" type="curve" name="UAXKFEJM"/>
      <point x="117" y="249" name="JZTQKWYQ"/>
      <point x="174" y="249" name="RJTDFYQY"/>
      <point x="228" y="249" type="curve" name="JLGIOBAH"/>
      <point x="230" y="351" name="IRLRDUYS"/>
      <point x="231" y="455" name="RQQKQTGE"/>
      <point x="233" y="557" type="curve" name="JWFWBWSW"/>
      <point x="175" y="557" name="YOEJJLCK"/>
      <point x="116" y="557" name="UMWPQGKG"/>
      <point x="58" y="557" type="curve" name="GDEEWQYC"/>
      <point x="60" y="455" name="EBJJZEHF"/>
      <point x="61" y="351" name="BXXBTHPD"/>
    </contour>
    <contour>
      <point x="146" y="64" type="curve" name="OODAGBVF"/>
      <point x="203" y="64" name="ZPPAXNKC"/>
      <point x="251" y="98" name="RMONFRVX"/>
      <point x="251" y="138" type="curve" smooth="yes" name="VXVRKXLC"/>
      <point x="251" y="178" name="XOPGMKUX"/>
      <point x="203" y="211" name="LRDJWFZK"/>
      <point x="146" y="211" type="curve" smooth="yes" name="YTRAWADO"/>
      <point x="87" y="211" name="MNWYLZWF"/>
      <point x="40" y="178" name="PVZUHHUI"/>
      <point x="40" y="138" type="curve" smooth="yes" name="WHJTEWIT"/>
      <point x="40" y="98" name="NGNRPXOQ"/>
      <point x="87" y="64" name="EQRVHCZD"/>
      <point x="146" y="64" type="curve" name="LLRNFALR"/>
      <point x="146" y="64" name="JUAKAZAP"/>
      <point x="146" y="64" name="LUBASZZH"/>
    </contour>
  </outline>
</glyph>
<glyph name="plus" format="2">
  <advance width="540"/>
  <unicode hex="002B"/>
  <outline>
    <contour>
      <point x="40" y="239" type="curve" name="FDPRJIMK"/>
      <point x="90" y="239" name="HJJTOGSE"/>
      <point x="141" y="239" name="MEVKMNSR"/>
      <point x="191" y="239" type="curve" name="UHITOGNQ"/>
      <point x="191" y="202" name="FMELZZAB"/>
      <point x="191" y="165" name="NQDXZRLY"/>
      <point x="191" y="128" type="curve" name="IBUMNBUX"/>
      <point x="243" y="128" name="UICZIOOE"/>
      <point x="298" y="128" name="APOFULXX"/>
      <point x="350" y="128" type="curve" name="ZNJYEAZW"/>
      <point x="350" y="165" name="XFCVPFQL"/>
      <point x="350" y="202" name="TGPJDJQT"/>
      <point x="350" y="239" type="curve" name="SQJNUUZI"/>
      <point x="400" y="239" name="EHZMGZTG"/>
      <point x="450" y="239" name="UCZDNFWJ"/>
      <point x="500" y="239" type="curve" name="IBAYCNLQ"/>
      <point x="500" y="275" name="MOMJFSRA"/>
      <point x="500" y="313" name="IUPBAOBH"/>
      <point x="500" y="349" type="curve" name="XLAADHGV"/>
      <point x="450" y="349" name="YSYMROCD"/>
      <point x="400" y="349" name="MEBASWBG"/>
      <point x="350" y="349" type="curve" name="ZCFKCFPC"/>
      <point x="350" y="385" name="WUQWPFEX"/>
      <point x="350" y="424" name="OKGOEGXT"/>
      <point x="350" y="460" type="curve" name="ISBLBOZI"/>
      <point x="298" y="460" name="WRTMRGZL"/>
      <point x="243" y="460" name="GUUZQKSA"/>
      <point x="191" y="460" type="curve" name="LXDQWQHZ"/>
      <point x="191" y="424" name="LFCERDUJ"/>
      <point x="191" y="385" name="RKWEMFZU"/>
      <point x="191" y="349" type="curve" name="KVERUCAD"/>
      <point x="141" y="349" name="UKGNOHED"/>
      <point x="90" y="349" name="CIXDLBJO"/>
      <point x="40" y="349" type="curve" name="BMFYFOUT"/>
      <point x="40" y="313" name="LWHSJNGL"/>
      <point x="40" y="275" name="TUPELLBX"/>
    </contour>
  </outline>
</glyph>
<glyph name="comma" format="2">
  <advance width="297"/>
  <unicode hex="002C"/>
  <outline>
    <contour>
      <point x="28" y="4" type="curve" name="HJDGNTEJ"/>
      <point x="76" y="4" name="IDWTCQML"/>
      <point x="124" y="4" name="SKUZZZBZ"/>
      <point x="172" y="4" type="curve" name="PACAEACX"/>
      <point x="196" y="70" name="OLLTEOFE"/>
      <point x="222" y="138" name="ITCEFQLP"/>
      <point x="246" y="204" type="curve" name="REMWPBID"/>
      <point x="190" y="204" name="GBCOJPPA"/>
      <point x="133" y="204" name="CGFRFOXM"/>
      <point x="77" y="204" type="curve" name="DMWWMRIV"/>
      <point x="61" y="138" name="ZTBMLCJP"/>
      <point x="44" y="70" name="RHBIZKAT"/>
    </contour>
  </outline>
</glyph>
<glyph name="six" format="2">
  <advance width="563"/>
  <unicode hex="0036"/>
  <outline>
    <contour>
      <point x="494" y="424" type="curve" name="XXXSDYMD"/>
      <point x="494" y="464" name="RESDQBMY"/>
      <point x="494" y="506" name="VRIPSTTF"/>
      <point x="494" y="546" type="curve" name="PSUQGXST"/>
      <point x="217" y="598" name="QXWCIZXV"/>
      <point x="25" y="507" name="OEDFHOPB"/>
      <point x="25" y="301" type="curve" smooth="yes" name="HEMZCZLA"/>
      <point x="25" y="146" name="LTIUKOMN"/>
      <point x="135" y="67" name="CETEAWCV"/>
      <point x="290" y="67" type="curve" smooth="yes" name="AABCEIGZ"/>
      <point x="444" y="67" name="XDFMUSAN"/>
      <point x="545" y="141" name="ZUVKSUWZ"/>
      <point x="545" y="240" type="curve" smooth="yes" name="KBRGZOMR"/>
      <point x="545" y="393" name="VRLMYGGG"/>
      <point x="318" y="431" name="RZUMOBFQ"/>
      <point x="199" y="365" type="curve" name="DKLZBVRH"/>
      <point x="209" y="448" name="MFDIYTMK"/>
      <point x="355" y="468" name="GPGRZPRQ"/>
      <point x="494" y="424" type="curve" name="KFQDSRDJ"/>
      <point x="494" y="424" name="ZCVDZXWD"/>
      <point x="494" y="424" name="NMKHXFMG"/>
    </contour>
    <contour>
      <point x="289" y="178" type="curve" name="RGWNONTK"/>
      <point x="241" y="178" name="GJNQYAZH"/>
      <point x="208" y="203" name="BCEVNZMN"/>
      <point x="208" y="240" type="curve" smooth="yes" name="WKQDMNPY"/>
      <point x="208" y="274" name="ZNQHNEQX"/>
      <point x="241" y="298" name="AIZMCUYL"/>
      <point x="289" y="298" type="curve" smooth="yes" name="RVOFEHDQ"/>
      <point x="338" y="298" name="USFPYLGC"/>
      <point x="372" y="274" name="UHJTVWFN"/>
      <point x="372" y="238" type="curve" smooth="yes" name="VRPGVAJM"/>
      <point x="372" y="202" name="AGKDWDQP"/>
      <point x="338" y="178" name="VXENSWIB"/>
      <point x="289" y="178" type="curve" name="RKRDHPUN"/>
      <point x="289" y="178" name="KDOLSLAG"/>
      <point x="289" y="178" name="ZECEUEFJ"/>
    </contour>
  </outline>
</glyph>
<glyph name="eight" format="2">
  <advance width="560"/>
  <unicode hex="0038"/>
  <outline>
    <contour>
      <point x="281" y="65" type="curve" name="DOFMKEDY"/>
      <point x="426" y="65" name="GMCIIINK"/>
      <point x="535" y="125" name="EISBSPGO"/>
      <point x="535" y="216" type="curve" smooth="yes" name="MKVKRRBB"/>
      <point x="535" y="266" name="YCDHPJRS"/>
      <point x="503" y="303" name="BYHRSRAF"/>
      <point x="452" y="325" type="curve" name="ABYWJPRQ"/>
      <point x="495" y="347" name="BOJHESWY"/>
      <point x="521" y="379" name="UCDYIMDR"/>
      <point x="521" y="422" type="curve" smooth="yes" name="OXXMJZUI"/>
      <point x="521" y="507" name="LULWKPZY"/>
      <point x="419" y="567" name="HLNFOSPY"/>
      <point x="281" y="567" type="curve" smooth="yes" name="OUGICIXE"/>
      <point x="142" y="567" name="IAGLPLVV"/>
      <point x="39" y="507" name="VLBPLNCV"/>
      <point x="39" y="422" type="curve" smooth="yes" name="ZFVYYODD"/>
      <point x="39" y="379" name="JNILWGOC"/>
      <point x="65" y="347" name="AEWDVHLQ"/>
      <point x="109" y="325" type="curve" name="CHVXHYMR"/>
      <point x="57" y="303" name="LJRFXHQL"/>
      <point x="25" y="266" name="AHHDNXHS"/>
      <point x="25" y="216" type="curve" smooth="yes" name="RTAZHXOF"/>
      <point x="25" y="125" name="CTFZRPUR"/>
      <point x="134" y="65" name="DQHLAGKS"/>
      <point x="281" y="65" type="curve" name="AYCRFBKV"/>
      <point x="281" y="65" name="CVNROQOA"/>
      <point x="281" y="65" name="FWKBVASS"/>
    </contour>
    <contour>
      <point x="281" y="371" type="curve" name="EOYEYDXK"/>
      <point x="239" y="371" name="KRSHIPAQ"/>
      <point x="209" y="390" name="BZUFEZGD"/>
      <point x="209" y="416" type="curve" smooth="yes" name="TOYZQIDQ"/>
      <point x="209" y="441" name="WPNUVNRR"/>
      <point x="238" y="459" name="MYZPRHSB"/>
      <point x="281" y="459" type="curve" smooth="yes" name="RQGKYOET"/>
      <point x="323" y="459" name="PASTMJFG"/>
      <point x="351" y="441" name="PROVXJWD"/>
      <point x="351" y="416" type="curve" smooth="yes" name="IOHRTIRM"/>
      <point x="351" y="390" name="CCYOLLDZ"/>
      <point x="323" y="371" name="QPPUAFBP"/>
      <point x="281" y="371" type="curve" name="ZYRTIEPK"/>
      <point x="281" y="371" name="FWNSCVWC"/>
      <point x="281" y="371" name="KKIHZGKD"/>
    </contour>
    <contour>
      <point x="281" y="173" type="curve" name="DMBCBELI"/>
      <point x="234" y="173" name="CHLABBWP"/>
      <point x="198" y="195" name="LLNSAIUO"/>
      <point x="198" y="226" type="curve" smooth="yes" name="GACEOBPY"/>
      <point x="198" y="257" name="EQYIXOGQ"/>
      <point x="234" y="279" name="NPSASKPS"/>
      <point x="281" y="279" type="curve" smooth="yes" name="IXJATNYN"/>
      <point x="327" y="279" name="IVCVRRFV"/>
      <point x="362" y="257" name="BNLDSDEK"/>
      <point x="362" y="226" type="curve" smooth="yes" name="BOOPPMME"/>
      <point x="362" y="195" name="APGEUQZO"/>
      <point x="327" y="173" name="WIKUNKCK"/>
      <point x="281" y="173" type="curve" name="MCWGYAPG"/>
      <point x="281" y="173" name="FXJEVWXT"/>
      <point x="281" y="173" name="WDPPZZFT"/>
    </contour>
  </outline>
</glyph>
<glyph name="K" format="2">
  <advance width="645"/>
  <unicode hex="004B"/>
  <outline>
    <contour>
      <point x="65" y="76" type="curve" name="UAIGILXV"/>
      <point x="123" y="76" name="YVBKUOSO"/>
      <point x="182" y="76" name="VAWQWQWZ"/>
      <point x="240" y="76" type="curve" name="ZXZIHMEH"/>
      <point x="240" y="142" name="LONDLLWA"/>
      <point x="240" y="210" name="EDKSFRZN"/>
      <point x="240" y="277" type="curve" name="LRQHAWYC"/>
      <point x="308" y="210" name="WIDKCPWJ"/>
      <point x="378" y="142" name="YMLBPACX"/>
      <point x="446" y="76" type="curve" name="TKHLPUOL"/>
      <point x="515" y="76" name="FOMAJGVF"/>
      <point x="586" y="76" name="QEVMSJSM"/>
      <point x="655" y="76" type="curve" name="MQCTQWXR"/>
      <point x="567" y="159" name="IWWDSIHV"/>
      <point x="476" y="245" name="ZTJYLJNY"/>
      <point x="388" y="328" type="curve" name="HVVCRDJM"/>
      <point x="472" y="404" name="XWTNTPUN"/>
      <point x="559" y="481" name="JURUULAW"/>
      <point x="643" y="557" type="curve" name="XZNCWVSG"/>
      <point x="578" y="557" name="TZUMCIOY"/>
      <point x="510" y="557" name="QDUQLMPV"/>
      <point x="445" y="557" type="curve" name="BVSAZEWL"/>
      <point x="377" y="495" name="YJLIXMKZ"/>
      <point x="308" y="432" name="NCYXOZCO"/>
      <point x="240" y="371" type="curve" name="TJYHTKSX"/>
      <point x="240" y="432" name="BZDHSNRR"/>
      <point x="240" y="495" name="UBKUYKGF"/>
      <point x="240" y="557" type="curve" name="PGWDZBPB"/>
      <point x="182" y="557" name="XQWSGRKJ"/>
      <point x="123" y="557" name="BUNFGAAV"/>
      <point x="65" y="557" type="curve" name="YCISUSSL"/>
      <point x="65" y="398" name="QGTYSOYQ"/>
      <point x="65" y="234" name="KQRSJCGJ"/>
    </contour>
  </outline>
</glyph>
<glyph name="X" format="2">
  <advance width="658"/>
  <unicode hex="0058"/>
  <outline>
    <contour>
      <point x="23" y="557" type="curve" name="UXTYUNSN"/>
      <point x="88" y="479" name="RKCNYTMH"/>
      <point x="154" y="400" name="YUPXXORQ"/>
      <point x="219" y="322" type="curve" name="OSXKEZIC"/>
      <point x="150" y="241" name="IAVNOVYA"/>
      <point x="79" y="157" name="JHYZEYKI"/>
      <point x="10" y="76" type="curve" name="CGCSAGBD"/>
      <point x="74" y="76" name="CIWJGUCM"/>
      <point x="140" y="76" name="EFYOVNKV"/>
      <point x="204" y="76" type="curve" name="YSKCLJQL"/>
      <point x="245" y="125" name="LOYRGQUI"/>
      <point x="288" y="176" name="MRMZESQQ"/>
      <point x="329" y="226" type="curve" name="WWZSWSNA"/>
      <point x="369" y="176" name="EYXXONOL"/>
      <point x="411" y="125" name="AHMUHDWG"/>
      <point x="451" y="76" type="curve" name="VYFIYFMA"/>
      <point x="516" y="76" name="TTWBENUX"/>
      <point x="583" y="76" name="HXHDIHUV"/>
      <point x="648" y="76" type="curve" name="BVMCKLOC"/>
      <point x="580" y="158" name="SWYDPUVC"/>
      <point x="509" y="243" name="ICUYOSOG"/>
      <point x="441" y="325" type="curve" name="GEHVVDAW"/>
      <point x="506" y="401" name="MTMAHDFK"/>
      <point x="573" y="480" name="EZPSQTIA"/>
      <point x="638" y="557" type="curve" name="BPIOECAV"/>
      <point x="574" y="557" name="DOHPPAKC"/>
      <point x="508" y="557" name="SUXTVVMA"/>
      <point x="444" y="557" type="curve" name="OOZMSNXC"/>
      <point x="407" y="512" name="RLGSMMUF"/>
      <point x="369" y="466" name="WBOKYIEB"/>
      <point x="332" y="421" type="curve" name="TVDBJYAR"/>
      <point x="295" y="466" name="ANSEOJUB"/>
      <point x="257" y="512" name="MWZQFRJJ"/>
      <point x="220" y="557" type="curve" name="JUBILFQV"/>
      <point x="155" y="557" name="KTJCVHDH"/>
      <point x="88" y="557" name="NHAQMIPB"/>
    </contour>
  </outline>
</glyph>
<glyph name="bracketright" format="2">
  <advance width="445"/>
  <unicode hex="005D"/>
  <outline>
    <contour>
      <point x="370" y="-37" type="curve" name="JMUWIEGD"/>
      <point x="370" y="180" name="WDLRGKEJ"/>
      <point x="370" y="403" name="JEVUUCHX"/>
      <point x="370" y="620" type="curve" name="GMFWXPPH"/>
      <point x="261" y="620" name="KWMZKOMV"/>
      <point x="149" y="620" name="CZVPXVLQ"/>
      <point x="40" y="620" type="curve" name="TMKWOZDO"/>
      <point x="40" y="586" name="UDONOSFB"/>
      <point x="40" y="552" name="BOQOOSUJ"/>
      <point x="40" y="518" type="curve" name="WWARALBV"/>
      <point x="94" y="518" name="XITPUEOJ"/>
      <point x="151" y="518" name="TGXCVJET"/>
      <point x="205" y="518" type="curve" name="YEBYPFYW"/>
      <point x="205" y="368" name="LHEWRWYN"/>
      <point x="205" y="214" name="QCLTVUMG"/>
      <point x="205" y="65" type="curve" name="EVCKWKQC"/>
      <point x="151" y="65" name="HQGLUKDH"/>
      <point x="94" y="65" name="NRMJUJQX"/>
      <point x="40" y="65" type="curve" name="FVGFBFHV"/>
      <point x="40" y="31" name="IVTXCWBS"/>
      <point x="40" y="-3" name="ZYKUJFCS"/>
      <point x="40" y="-37" type="curve" name="RWLAXYAQ"/>
      <point x="149" y="-37" name="QEAGAYTE"/>
      <point x="261" y="-37" name="YBZLRMAW"/>
    </contour>
  </outline>
</glyph>
<glyph name="a" format="2">
  <advance width="620"/>
  <unicode hex="0061"/>
  <anchor x="321" y="517" name="center"/>
  <outline>
    <contour>
      <point x="400" y="76" type="curve" name="RFRXNLNQ"/>
      <point x="454" y="76" name="GTCPDWWO"/>
      <point x="511" y="76" name="GBLDHZPB"/>
      <point x="565" y="76" type="curve" name="ECYLTZEZ"/>
      <point x="565" y="197" name="GYKEAPGH"/>
      <point x="565" y="320" name="FRGHFBOW"/>
      <point x="565" y="441" type="curve" name="TMKYTYTK"/>
      <point x="511" y="441" name="QZNRRCRN"/>
      <point x="454" y="441" name="RHZAESPM"/>
      <point x="400" y="441" type="curve" name="XGXLDBRK"/>
      <point x="400" y="434" name="CKCHAAYH"/>
      <point x="400" y="428" name="AQNYWRRE"/>
      <point x="400" y="421" type="curve" name="MDVSLRME"/>
      <point x="367" y="440" name="ORPLKRUJ"/>
      <point x="323" y="451" name="FZAHFCZL"/>
      <point x="275" y="451" type="curve" smooth="yes" name="ASLMTSOL"/>
      <point x="141" y="451" name="QSBUMJRT"/>
      <point x="27" y="375" name="NLDEYMQA"/>
      <point x="27" y="259" type="curve" smooth="yes" name="PUECHEZL"/>
      <point x="27" y="144" name="JKYHXMJY"/>
      <point x="141" y="66" name="MLZQSXOD"/>
      <point x="276" y="66" type="curve" smooth="yes" name="BKBQXWTA"/>
      <point x="324" y="66" name="QIRDJZFV"/>
      <point x="367" y="77" name="PBDENUZF"/>
      <point x="400" y="97" type="curve" name="EKDGAGNW"/>
      <point x="400" y="90" name="ATDDYBVN"/>
      <point x="400" y="83" name="HKCCHHRH"/>
    </contour>
    <contour>
      <point x="298" y="169" type="curve" name="EIUOTKTY"/>
      <point x="233" y="169" name="UOPLGIMD"/>
      <point x="192" y="204" name="OHSPEYJW"/>
      <point x="192" y="259" type="curve" smooth="yes" name="YZOQGJPX"/>
      <point x="192" y="313" name="HYFCPYLD"/>
      <point x="233" y="348" name="CUMDJYIW"/>
      <point x="298" y="348" type="curve" smooth="yes" name="RDHNIDNU"/>
      <point x="362" y="348" name="FPXOSMZC"/>
      <point x="404" y="313" name="KDUDCOLX"/>
      <point x="404" y="259" type="curve" smooth="yes" name="ARPSVJOP"/>
      <point x="404" y="205" name="SRUPOXTI"/>
      <point x="362" y="169" name="FBFALOQM"/>
      <point x="298" y="169" type="curve" name="WNJTCGEG"/>
      <point x="298" y="169" name="XKLSCOID"/>
      <point x="298" y="169" name="BWJTQHGS"/>
    </contour>
  </outline>
</glyph>
<glyph name="b" format="2">
  <advance width="620"/>
  <unicode hex="0062"/>
  <outline>
    <contour>
      <point x="220" y="76" type="curve" name="NTIWZURW"/>
      <point x="220" y="83" name="VWJRIPBM"/>
      <point x="220" y="90" name="EGRRAIMX"/>
      <point x="220" y="97" type="curve" name="QHQHXEAN"/>
      <point x="253" y="77" name="UVFGCQGG"/>
      <point x="296" y="66" name="WVVBSQKB"/>
      <point x="344" y="66" type="curve" smooth="yes" name="MHNUIHWP"/>
      <point x="479" y="66" name="QESTFBZR"/>
      <point x="593" y="146" name="WMVWUVIQ"/>
      <point x="593" y="259" type="curve" smooth="yes" name="XKTPJPAV"/>
      <point x="593" y="373" name="RVMVCBSI"/>
      <point x="479" y="451" name="TRKMMSAH"/>
      <point x="345" y="451" type="curve" smooth="yes" name="ZWAQZXCM"/>
      <point x="297" y="451" name="DGQUBRVY"/>
      <point x="253" y="440" name="LUIGAKMW"/>
      <point x="220" y="421" type="curve" name="PFOZHDWL"/>
      <point x="220" y="477" name="ZWWFAOIE"/>
      <point x="220" y="535" name="ORCSFLEH"/>
      <point x="220" y="592" type="curve" name="FSOVLHHF"/>
      <point x="166" y="592" name="ATRDVUFA"/>
      <point x="109" y="592" name="PPEZJINH"/>
      <point x="55" y="592" type="curve" name="ONKKJWQY"/>
      <point x="55" y="421" name="ZYMTPCJT"/>
      <point x="55" y="246" name="WFJEYRKO"/>
      <point x="55" y="76" type="curve" name="WVAWLGGV"/>
      <point x="109" y="76" name="YGNSDUMJ"/>
      <point x="166" y="76" name="YMBILJND"/>
    </contour>
    <contour>
      <point x="322" y="169" type="curve" name="KONSSEKA"/>
      <point x="258" y="169" name="EKEALSCD"/>
      <point x="216" y="205" name="SPBWIGZS"/>
      <point x="216" y="259" type="curve" smooth="yes" name="WACNGEIS"/>
      <point x="216" y="313" name="BOEBDNVW"/>
      <point x="258" y="348" name="QDIBMZRC"/>
      <point x="322" y="348" type="curve" smooth="yes" name="VYXJYLLI"/>
      <point x="387" y="348" name="ENCBQBMC"/>
      <point x="428" y="313" name="OSSIUVBL"/>
      <point x="428" y="259" type="curve" smooth="yes" name="DPSHREBV"/>
      <point x="428" y="204" name="YFZXPXMH"/>
      <point x="387" y="169" name="WNNKXWTV"/>
      <point x="322" y="169" type="curve" name="KWLZKPNM"/>
      <point x="322" y="169" name="OXCAQYLZ"/>
      <point x="322" y="169" name="JSLJZZNU"/>
    </contour>
  </outline>
</glyph>
<glyph name="f" format="2">
  <advance width="428"/>
  <unicode hex="0066"/>
  <outline>
    <contour>
      <point x="28" y="337" type="curve" name="UOTRHDWQ"/>
      <point x="55" y="337" name="GWFKTQVX"/>
      <point x="82" y="337" name="WHQIWZHS"/>
      <point x="109" y="337" type="curve" name="SXQCYSGO"/>
      <point x="109" y="250" name="AMCEBCQT"/>
      <point x="109" y="162" name="IKTUTIIE"/>
      <point x="109" y="76" type="curve" name="TXJBOCDK"/>
      <point x="163" y="76" name="VSOEASTU"/>
      <point x="220" y="76" name="EMKNEKYH"/>
      <point x="274" y="76" type="curve" name="EMFIZJMS"/>
      <point x="274" y="162" name="ACTKEGQS"/>
      <point x="274" y="250" name="VLNXWXRD"/>
      <point x="274" y="337" type="curve" name="GBIMKFME"/>
      <point x="315" y="337" name="CKWQMQEZ"/>
      <point x="357" y="337" name="KJAHJLFY"/>
      <point x="398" y="337" type="curve" name="LBBIFENU"/>
      <point x="398" y="371" name="VUXGEMRL"/>
      <point x="398" y="407" name="RPOCPBTM"/>
      <point x="398" y="441" type="curve" name="VGELWJDK"/>
      <point x="357" y="441" name="MFBENNJN"/>
      <point x="315" y="441" name="UUTHJRAG"/>
      <point x="274" y="441" type="curve" name="JOLQFQXM"/>
      <point x="274" y="445" name="NNIYCUGB"/>
      <point x="274" y="449" name="ERSKQPWG"/>
      <point x="274" y="453" type="curve" smooth="yes" name="SZNPJPWB"/>
      <point x="274" y="490" name="LRQIDHIS"/>
      <point x="338" y="503" name="JWAERIVP"/>
      <point x="418" y="484" type="curve" name="WRRQRCFW"/>
      <point x="418" y="519" name="AJYAVMSE"/>
      <point x="418" y="557" name="DMELYFAO"/>
      <point x="418" y="592" type="curve" name="XMOCLZZA"/>
      <point x="275" y="625" name="YJJCBJYA"/>
      <point x="109" y="579" name="MRMJAWKM"/>
      <point x="109" y="453" type="curve" smooth="yes" name="VLUEYQRV"/>
      <point x="109" y="449" name="HPHWJUSZ"/>
      <point x="109" y="446" name="MAVJMMXH"/>
      <point x="109" y="441" type="curve" name="YBEQSVIM"/>
      <point x="82" y="441" name="RCJWNWDR"/>
      <point x="55" y="441" name="NWOHTYXT"/>
      <point x="28" y="441" type="curve" name="EAIIOZHN"/>
      <point x="28" y="407" name="DMUHHBTB"/>
      <point x="28" y="371" name="PJNTSDPS"/>
    </contour>
  </outline>
</glyph>
<glyph name="g" format="2">
  <advance width="596"/>
  <unicode hex="0067"/>
  <outline>
    <contour>
      <point x="541" y="135" type="curve" name="JCJWTXKA"/>
      <point x="541" y="236" name="WTBAYTWZ"/>
      <point x="541" y="340" name="LVSROSWB"/>
      <point x="541" y="441" type="curve" name="TEJHVGNX"/>
      <point x="487" y="441" name="PTZUTFIY"/>
      <point x="430" y="441" name="LJNXWDAP"/>
      <point x="376" y="441" type="curve" name="XOSTNITI"/>
      <point x="376" y="435" name="XMBWLMDP"/>
      <point x="376" y="429" name="BDZLTXPP"/>
      <point x="376" y="423" type="curve" name="DUYLGXAE"/>
      <point x="344" y="439" name="OEBSFAKZ"/>
      <point x="302" y="449" name="RKYPAUGB"/>
      <point x="254" y="449" type="curve" smooth="yes" name="FMSBLGNA"/>
      <point x="133" y="449" name="USZBIYMC"/>
      <point x="27" y="378" name="TLEXCHOL"/>
      <point x="27" y="276" type="curve" smooth="yes" name="HAHNUOKG"/>
      <point x="27" y="177" name="VYSKYSFM"/>
      <point x="119" y="110" name="FMQMCLPO"/>
      <point x="245" y="110" type="curve" smooth="yes" name="EFIIVYSV"/>
      <point x="296" y="110" name="EXJOMAKI"/>
      <point x="341" y="121" name="CFBNLZFS"/>
      <point x="374" y="139" type="curve" name="LYITXAQC"/>
      <point x="374" y="135" name="SKRVLVCE"/>
      <point x="374" y="131" name="VXJYQZXU"/>
      <point x="374" y="127" type="curve" smooth="yes" name="BUUCEHKU"/>
      <point x="374" y="62" name="AUWWTQRZ"/>
      <point x="250" y="37" name="GBVVQONF"/>
      <point x="92" y="81" type="curve" name="HSQSBDRD"/>
      <point x="92" y="45" name="UJALTLVT"/>
      <point x="92" y="7" name="THFTHTRD"/>
      <point x="92" y="-30" type="curve" name="TNINRONX"/>
      <point x="329" y="-77" name="HTVZLMSI"/>
      <point x="541" y="-26" name="BXBXRZIB"/>
      <point x="541" y="135" type="curve" name="SAJDCUYX"/>
      <point x="541" y="135" name="KZIQOVRZ"/>
      <point x="541" y="135" name="PIPWXBIV"/>
    </contour>
    <contour>
      <point x="286" y="211" type="curve" name="ISZKLDNI"/>
      <point x="227" y="211" name="JZLIOLDY"/>
      <point x="190" y="238" name="UCYILSFR"/>
      <point x="190" y="279" type="curve" smooth="yes" name="BCCXEBOJ"/>
      <point x="190" y="320" name="LOZTQWXE"/>
      <point x="227" y="347" name="KPHTOCZT"/>
      <point x="286" y="347" type="curve" smooth="yes" name="YDKQWNZG"/>
      <point x="342" y="347" name="ZBXZVKOD"/>
      <point x="379" y="319" name="JDSOSIKO"/>
      <point x="379" y="279" type="curve" smooth="yes" name="BIIWMWJN"/>
      <point x="379" y="239" name="QCQRCMNS"/>
      <point x="342" y="211" name="HLLJBVHS"/>
      <point x="286" y="211" type="curve" name="XQABREUB"/>
      <point x="286" y="211" name="FXFILKWP"/>
      <point x="286" y="211" name="FRGSTNBC"/>
    </contour>
  </outline>
</glyph>
<glyph name="h" format="2">
  <advance width="594"/>
  <unicode hex="0068"/>
  <outline>
    <contour>
      <point x="55" y="76" type="curve" name="VJVGUABL"/>
      <point x="109" y="76" name="WISIJVGT"/>
      <point x="166" y="76" name="PZKSQYPE"/>
      <point x="220" y="76" type="curve" name="BXCOUNDA"/>
      <point x="220" y="144" name="DAHVMRHM"/>
      <point x="220" y="214" name="RFRXLHXK"/>
      <point x="220" y="282" type="curve" smooth="yes" name="CDBRRKON"/>
      <point x="220" y="322" name="HOSSGJJJ"/>
      <point x="251" y="345" name="BAXBLMLF"/>
      <point x="304" y="345" type="curve" smooth="yes" name="AOMSVUCX"/>
      <point x="357" y="345" name="OFMZPNIA"/>
      <point x="381" y="320" name="LHHRKWIS"/>
      <point x="381" y="282" type="curve" smooth="yes" name="DJXPURJL"/>
      <point x="381" y="214" name="RKAVHWCT"/>
      <point x="381" y="144" name="QIFZTCKO"/>
      <point x="381" y="76" type="curve" name="BUDQUWBM"/>
      <point x="435" y="76" name="EFKZJSDV"/>
      <point x="492" y="76" name="COEOBVRX"/>
      <point x="546" y="76" type="curve" name="FFNIXWLN"/>
      <point x="546" y="149" name="HQOZSDHD"/>
      <point x="546" y="224" name="OPJAPLRO"/>
      <point x="546" y="298" type="curve" smooth="yes" name="JPPMZSOY"/>
      <point x="546" y="393" name="TONILPPR"/>
      <point x="467" y="451" name="XLETOTRF"/>
      <point x="353" y="451" type="curve" smooth="yes" name="UASEECNB"/>
      <point x="301" y="451" name="JNLKRMUO"/>
      <point x="256" y="441" name="TJITMFPT"/>
      <point x="220" y="423" type="curve" name="BLWWGRPZ"/>
      <point x="220" y="479" name="UBWNMHET"/>
      <point x="220" y="536" name="RGPYJKAP"/>
      <point x="220" y="592" type="curve" name="MWXVQTSN"/>
      <point x="166" y="592" name="VHAARPCT"/>
      <point x="109" y="592" name="SNGNMQNI"/>
      <point x="55" y="592" type="curve" name="CXTXFDSL"/>
      <point x="55" y="421" name="KXOQVIEH"/>
      <point x="55" y="246" name="DHOTYTBB"/>
    </contour>
  </outline>
</glyph>
<glyph name="o" format="2">
  <advance width="600"/>
  <unicode hex="006F"/>
  <anchor x="0" y="527" name="top"/>
  <outline>
    <contour>
      <point x="300" y="64" type="curve" name="OBRLAGIP"/>
      <point x="456" y="64" name="TPHQIAYG"/>
      <point x="573" y="148" name="SLLBNUVD"/>
      <point x="573" y="259" type="curve" smooth="yes" name="EZCHJDAO"/>
      <point x="573" y="371" name="ILPENCCC"/>
      <point x="456" y="453" name="WGWJORXX"/>
      <point x="300" y="453" type="curve" smooth="yes" name="NDHPRJLU"/>
      <point x="144" y="453" name="TPBVQRHA"/>
      <point x="27" y="371" name="DWLOYQJU"/>
      <point x="27" y="259" type="curve" smooth="yes" name="JNYFYTAF"/>
      <point x="27" y="148" name="ZINFAKCE"/>
      <point x="144" y="64" name="JGKCNMDJ"/>
      <point x="300" y="64" type="curve" name="DXKKKRFR"/>
      <point x="300" y="64" name="KSQLQPNM"/>
      <point x="300" y="64" name="KVFJJSVA"/>
    </contour>
    <contour>
      <point x="300" y="170" type="curve" name="BXLTMDJC"/>
      <point x="235" y="170" name="ZDLXLSSH"/>
      <point x="192" y="207" name="YCPIOSCV"/>
      <point x="192" y="259" type="curve" smooth="yes" name="AETUUHTY"/>
      <point x="192" y="311" name="WPBQZNDR"/>
      <point x="235" y="347" name="ANBDHKLY"/>
      <point x="300" y="347" type="curve" smooth="yes" name="ILLYSWRE"/>
      <point x="365" y="347" name="TRLFCPDD"/>
      <point x="408" y="311" name="YBLBCMDS"/>
      <point x="408" y="259" type="curve" smooth="yes" name="WWJSQACX"/>
      <point x="408" y="207" name="PEPBFYJU"/>
      <point x="365" y="170" name="UOEGNEXM"/>
      <point x="300" y="170" type="curve" name="LYACURGU"/>
      <point x="300" y="170" name="XAUXYMUV"/>
      <point x="300" y="170" name="COGVPVHT"/>
    </contour>
  </outline>
</glyph>
<glyph name="u" format="2">
  <advance width="593"/>
  <unicode hex="0075"/>
  <outline>
    <contour>
      <point x="538" y="441" type="curve" name="PPZTJWRN"/>
      <point x="484" y="441" name="AEVSBTEE"/>
      <point x="427" y="441" name="LNSEXQOC"/>
      <point x="373" y="441" type="curve" name="QYRROEIH"/>
      <point x="373" y="373" name="ZLPCSFCC"/>
      <point x="373" y="303" name="TGBZDAPL"/>
      <point x="373" y="235" type="curve" smooth="yes" name="GMOTZUMW"/>
      <point x="373" y="195" name="LFIABLVC"/>
      <point x="342" y="172" name="JZKJCZRG"/>
      <point x="289" y="172" type="curve" smooth="yes" name="KJJFXAZH"/>
      <point x="236" y="172" name="XIWQTPVK"/>
      <point x="212" y="197" name="UGZIBCST"/>
      <point x="212" y="235" type="curve" smooth="yes" name="KGKDVSVN"/>
      <point x="212" y="303" name="JGOMWEFR"/>
      <point x="212" y="373" name="DHUTSBVQ"/>
      <point x="212" y="441" type="curve" name="POAJDLPY"/>
      <point x="158" y="441" name="IXJWNVFI"/>
      <point x="101" y="441" name="TODMFPZJ"/>
      <point x="47" y="441" type="curve" name="QVKRMWJA"/>
      <point x="47" y="368" name="COWPLLSU"/>
      <point x="47" y="293" name="DXARDKKY"/>
      <point x="47" y="219" type="curve" smooth="yes" name="RXKQBBPJ"/>
      <point x="47" y="124" name="QLYSKIPY"/>
      <point x="126" y="66" name="DTIJNGUM"/>
      <point x="240" y="66" type="curve" smooth="yes" name="PNIUSOXF"/>
      <point x="292" y="66" name="QAIDCIGJ"/>
      <point x="337" y="76" name="EZIGRJVQ"/>
      <point x="373" y="94" type="curve" name="JFNJQQEG"/>
      <point x="373" y="88" name="LNTIREQF"/>
      <point x="373" y="82" name="LIKITXOO"/>
      <point x="373" y="76" type="curve" name="ETLSGMWV"/>
      <point x="427" y="76" name="OSGRROZW"/>
      <point x="484" y="76" name="KZSVTFMV"/>
      <point x="538" y="76" type="curve" name="XEAUCMOR"/>
      <point x="538" y="197" name="AQWNUFYQ"/>
      <point x="538" y="320" name="TTAMHFIY"/>
    </contour>
  </outline>
</glyph>
<glyph name="yen" format="2">
  <advance width="599"/>
  <unicode hex="00A5"/>
  <outline>
    <contour>
      <point x="50" y="147" type="curve" name="JORMABMS"/>
      <point x="103" y="147" name="AKTPSWHU"/>
      <point x="159" y="147" name="SBMWTIDG"/>
      <point x="212" y="147" type="curve" name="OSSZDLSZ"/>
      <point x="212" y="124" name="AUJBUGOD"/>
      <point x="212" y="99" name="GGYWJURB"/>
      <point x="212" y="76" type="curve" name="TZUAZNRC"/>
      <point x="270" y="76" name="ZPPVOHGV"/>
      <point x="329" y="76" name="SUZHJACS"/>
      <point x="387" y="76" type="curve" name="MFSGHXAX"/>
      <point x="387" y="99" name="RVXMKWKK"/>
      <point x="387" y="124" name="FFGERYZH"/>
      <point x="387" y="147" type="curve" name="ZFZFJQTM"/>
      <point x="440" y="147" name="UCIEEYME"/>
      <point x="496" y="147" name="PVCCVYBR"/>
      <point x="549" y="147" type="curve" name="WAYEEQSO"/>
      <point x="549" y="174" name="ZSUYZSTU"/>
      <point x="549" y="202" name="PCLAJOBO"/>
      <point x="549" y="228" type="curve" name="DAUOXKIV"/>
      <point x="496" y="228" name="CNKCSYCN"/>
      <point x="440" y="228" name="ZMUPXDZW"/>
      <point x="387" y="228" type="curve" name="HZHJLXLH"/>
      <point x="387" y="239" name="ZHAKVGXA"/>
      <point x="387" y="250" name="FXDUXOSF"/>
      <point x="387" y="260" type="curve" name="DKMQAUOK"/>
      <point x="440" y="260" name="BRDFRDSG"/>
      <point x="496" y="260" name="IHAXYKCE"/>
      <point x="549" y="260" type="curve" name="YJLZLLWV"/>
      <point x="549" y="287" name="RHUKGFPQ"/>
      <point x="549" y="315" name="RJNULYAU"/>
      <point x="549" y="342" type="curve" name="YZBRKMEG"/>
      <point x="509" y="342" name="HTKAYRGE"/>
      <point x="468" y="342" name="ENRKEUSP"/>
      <point x="428" y="342" type="curve" name="LPAAZGFL"/>
      <point x="482" y="412" name="MQOQCEOM"/>
      <point x="539" y="486" name="YVKUIQPL"/>
      <point x="593" y="557" type="curve" name="GBQUWWHF"/>
      <point x="532" y="557" name="UTFQDWHV"/>
      <point x="470" y="557" name="EVIMHKZM"/>
      <point x="409" y="557" type="curve" name="TPKKIQMF"/>
      <point x="373" y="509" name="NIJLIEFK"/>
      <point x="337" y="460" name="IUPHXAWU"/>
      <point x="301" y="412" type="curve" name="BBYNWYHF"/>
      <point x="265" y="460" name="LTPYNKQJ"/>
      <point x="228" y="509" name="OMVGJMVS"/>
      <point x="192" y="557" type="curve" name="DLLYEVME"/>
      <point x="131" y="557" name="AAPAKNYG"/>
      <point x="67" y="557" name="HKCWTCGT"/>
      <point x="6" y="557" type="curve" name="TGBMGRZV"/>
      <point x="60" y="486" name="KREDZTYP"/>
      <point x="117" y="412" name="COTOKOIS"/>
      <point x="171" y="342" type="curve" name="YWZNGTBY"/>
      <point x="131" y="342" name="LKYUJHDC"/>
      <point x="90" y="342" name="DLCROESA"/>
      <point x="50" y="342" type="curve" name="GMCYDPKQ"/>
      <point x="50" y="315" name="UPNAJHBW"/>
      <point x="50" y="287" name="JQVMBEUM"/>
      <point x="50" y="260" type="curve" name="RWSKFHRQ"/>
      <point x="103" y="260" name="HKZKEGSC"/>
      <point x="159" y="260" name="LTBOVNNA"/>
      <point x="212" y="260" type="curve" name="SCQQRSUO"/>
      <point x="212" y="250" name="WNFGLSXC"/>
      <point x="212" y="239" name="BNVRVLNZ"/>
      <point x="212" y="228" type="curve" name="SMJGQXKY"/>
      <point x="159" y="228" name="KCUHPUPQ"/>
      <point x="103" y="228" name="APITBWXP"/>
      <point x="50" y="228" type="curve" name="JDROMBYJ"/>
      <point x="50" y="202" name="BMAZYUHG"/>
      <point x="50" y="174" name="MSXQYRRO"/>
    </contour>
  </outline>
</glyph>
<glyph name="ordfeminine" format="2">
  <advance width="495"/>
  <unicode hex="00AA"/>
  <outline>
    <contour>
      <point x="310" y="277" type="curve" name="GSFEACLJ"/>
      <point x="356" y="277" name="VQFNQVYB"/>
      <point x="403" y="277" name="EFEGCQBS"/>
      <point x="449" y="277" type="curve" name="UBWMKIGO"/>
      <point x="449" y="369" name="QDRRXFSK"/>
      <point x="449" y="465" name="DAQWPNHD"/>
      <point x="449" y="557" type="curve" name="ZISOZXTT"/>
      <point x="403" y="557" name="NHBBJXXZ"/>
      <point x="356" y="557" name="QMGPIQVN"/>
      <point x="310" y="557" type="curve" name="IQAPJIZW"/>
      <point x="310" y="552" name="ZJJMPTWF"/>
      <point x="310" y="548" name="TUSNWYKB"/>
      <point x="310" y="544" type="curve" name="CACSFYPZ"/>
      <point x="287" y="557" name="OZNURPMG"/>
      <point x="257" y="565" name="RWISGEVA"/>
      <point x="225" y="565" type="curve" smooth="yes" name="BUCYZUQU"/>
      <point x="123" y="565" name="NYSVHSQU"/>
      <point x="36" y="506" name="SIVTPZCF"/>
      <point x="36" y="417" type="curve" smooth="yes" name="KDBZGZAZ"/>
      <point x="36" y="330" name="SWYRRTAZ"/>
      <point x="123" y="269" name="HTRSIKIJ"/>
      <point x="226" y="269" type="curve" smooth="yes" name="LUFGATNF"/>
      <point x="258" y="269" name="SGDCPLNA"/>
      <point x="287" y="277" name="EUPIMQJE"/>
      <point x="310" y="291" type="curve" name="VEBDHIFF"/>
      <point x="310" y="286" name="VSWVQQCL"/>
      <point x="310" y="281" name="OOUTREYW"/>
    </contour>
    <contour>
      <point x="244" y="359" type="curve" name="QOOMEDKX"/>
      <point x="202" y="359" name="LISJHDLE"/>
      <point x="175" y="382" name="GFJARUZB"/>
      <point x="175" y="417" type="curve" smooth="yes" name="UVLBJGLQ"/>
      <point x="175" y="453" name="ISIFSMPQ"/>
      <point x="202" y="475" name="YPMSCQKM"/>
      <point x="244" y="475" type="curve" smooth="yes" name="DCQCAMJV"/>
      <point x="286" y="475" name="RQQXGWHR"/>
      <point x="314" y="453" name="MZYEHZXR"/>
      <point x="314" y="417" type="curve" smooth="yes" name="GXQDHCHR"/>
      <point x="314" y="382" name="QANXNCTT"/>
      <point x="286" y="359" name="OEMEKUSP"/>
      <point x="244" y="359" type="curve" name="NYPDOCFL"/>
      <point x="244" y="359" name="YEIPQNHA"/>
      <point x="244" y="359" name="PFNSBHCC"/>
    </contour>
    <contour>
      <point x="56" y="149" type="curve" name="QFOIUJWM"/>
      <point x="186" y="149" name="FDMJLFWN"/>
      <point x="319" y="149" name="YIVWLODY"/>
      <point x="449" y="149" type="curve" name="IOBGXHUK"/>
      <point x="449" y="179" name="GZELHTBD"/>
      <point x="449" y="209" name="IDKFTNHH"/>
      <point x="449" y="240" type="curve" name="KWMOGLPT"/>
      <point x="319" y="240" name="SJBRHSMX"/>
      <point x="186" y="240" name="YORCNSXP"/>
      <point x="56" y="240" type="curve" name="YMHTGTBW"/>
      <point x="56" y="209" name="ARKZLWON"/>
      <point x="56" y="179" name="OMFMWTDX"/>
    </contour>
  </outline>
</glyph>
<glyph name="guillemetleft" format="2">
  <advance width="777"/>
  <unicode hex="00AB"/>
  <outline>
    <contour>
      <point x="40" y="197" type="curve" name="SYNYCGBI"/>
      <point x="145" y="153" name="LUQTGXVQ"/>
      <point x="252" y="107" name="MTMMPLFO"/>
      <point x="357" y="62" type="curve" name="BRTHSQHH"/>
      <point x="357" y="105" name="JLABQWKF"/>
      <point x="357" y="151" name="SIGENDYB"/>
      <point x="357" y="194" type="curve" name="IOMJNGZD"/>
      <point x="302" y="216" name="NCGOAOVL"/>
      <point x="246" y="239" name="AOSHRXCZ"/>
      <point x="191" y="262" type="curve" name="DOKFFNSR"/>
      <point x="246" y="284" name="XIMEZWQG"/>
      <point x="302" y="306" name="GDYZCSMQ"/>
      <point x="357" y="328" type="curve" name="EOGGKNTE"/>
      <point x="357" y="371" name="ZIEKTKLE"/>
      <point x="357" y="415" name="NJMYLAKD"/>
      <point x="357" y="458" type="curve" name="GWEKYAIT"/>
      <point x="252" y="413" name="DEKYSIYY"/>
      <point x="145" y="367" name="UHUECTMA"/>
      <point x="40" y="322" type="curve" name="NTQUCFQO"/>
      <point x="40" y="281" name="TDZAPFPI"/>
      <point x="40" y="238" name="LOKNOOPX"/>
    </contour>
    <contour>
      <point x="410" y="197" type="curve" name="OSGKAGCI"/>
      <point x="515" y="153" name="QKCFIULO"/>
      <point x="622" y="107" name="PKFZGIOZ"/>
      <point x="727" y="62" type="curve" name="TZHBIBZS"/>
      <point x="727" y="105" name="GWIUEXTH"/>
      <point x="727" y="151" name="KKLYECGF"/>
      <point x="727" y="194" type="curve" name="AZCVMYLG"/>
      <point x="672" y="216" name="OJPJIOVK"/>
      <point x="616" y="239" name="OGSNJIRO"/>
      <point x="561" y="262" type="curve" name="QFWEFQUB"/>
      <point x="616" y="284" name="GBGOJEHW"/>
      <point x="672" y="306" name="LDFSTZVL"/>
      <point x="727" y="328" type="curve" name="ZWGYSRNO"/>
      <point x="727" y="371" name="XREPDJBR"/>
      <point x="727" y="415" name="SGLVDMNS"/>
      <point x="727" y="458" type="curve" name="MIYWWZJU"/>
      <point x="622" y="413" name="ZSXLODIO"/>
      <point x="515" y="367" name="VXGPKYXN"/>
      <point x="410" y="322" type="curve" name="YTXSZTIV"/>
      <point x="410" y="281" name="ZDFBFSMD"/>
      <point x="410" y="238" name="HPLVCVEN"/>
    </contour>
  </outline>
</glyph>
<glyph name="twosuperior" format="2">
  <advance width="431"/>
  <unicode hex="00B2"/>
  <outline>
    <contour>
      <point x="67" y="267" type="curve" name="QRPFFGJR"/>
      <point x="168" y="267" name="TOJBVITG"/>
      <point x="271" y="267" name="FBTGTDJX"/>
      <point x="372" y="267" type="curve" name="DZPJZJQK"/>
      <point x="372" y="293" name="HYADOJLU"/>
      <point x="372" y="320" name="EFFJHJHF"/>
      <point x="372" y="345" type="curve" name="KLWQWWIW"/>
      <point x="330" y="345" name="YGZWEQRS"/>
      <point x="286" y="345" name="TVCHZXEY"/>
      <point x="244" y="345" type="curve" name="BMZTMABG"/>
      <point x="259" y="354" name="GYYHHFQK"/>
      <point x="273" y="361" name="CYLKXZDH"/>
      <point x="288" y="370" type="curve" smooth="yes" name="IJZVMXJN"/>
      <point x="350" y="405" name="MTQALMJH"/>
      <point x="375" y="439" name="XCLLNTUX"/>
      <point x="375" y="475" type="curve" smooth="yes" name="MAKELWWM"/>
      <point x="375" y="546" name="BGLADGTQ"/>
      <point x="258" y="590" name="DBQWGFWG"/>
      <point x="73" y="551" type="curve" name="NEJCYRUF"/>
      <point x="73" y="522" name="AHWSDVUN"/>
      <point x="73" y="493" name="FXBQDDHS"/>
      <point x="73" y="464" type="curve" name="KAULESYI"/>
      <point x="172" y="488" name="JHODYQJH"/>
      <point x="232" y="483" name="HNYLPHPT"/>
      <point x="232" y="454" type="curve" smooth="yes" name="BWWJTDQW"/>
      <point x="232" y="440" name="QLVNBZEA"/>
      <point x="214" y="425" name="BZRDIZRV"/>
      <point x="167" y="400" type="curve" smooth="yes" name="SQZTCGBT"/>
      <point x="134" y="382" name="EBKGIKMQ"/>
      <point x="100" y="363" name="ZXABGTTD"/>
      <point x="67" y="345" type="curve" name="RMOLQQSG"/>
      <point x="67" y="320" name="HROXQZAI"/>
      <point x="67" y="293" name="IXGYKHUK"/>
    </contour>
  </outline>
</glyph>
<glyph name="thorn" format="2">
  <advance width="620"/>
  <unicode hex="00FE"/>
  <outline>
    <contour>
      <point x="220" y="-37" type="curve" name="SPAHTJPL"/>
      <point x="220" y="7" name="DIIITBHL"/>
      <point x="220" y="52" name="YXFONMQE"/>
      <point x="220" y="97" type="curve" name="PLLQVCAN"/>
      <point x="253" y="77" name="YLPWFKYD"/>
      <point x="296" y="66" name="XGHNQSKJ"/>
      <point x="344" y="66" type="curve" smooth="yes" name="TPTRAUNZ"/>
      <point x="479" y="66" name="JDVPDODB"/>
      <point x="593" y="146" name="CWTJUYAO"/>
      <point x="593" y="259" type="curve" smooth="yes" name="QVYRCMVF"/>
      <point x="593" y="373" name="KRAFQFER"/>
      <point x="479" y="451" name="LIHSXLPW"/>
      <point x="345" y="451" type="curve" smooth="yes" name="BNRCMGKF"/>
      <point x="297" y="451" name="FTNFXEMI"/>
      <point x="253" y="440" name="DLKKXYMX"/>
      <point x="220" y="421" type="curve" name="QYICNFRJ"/>
      <point x="220" y="477" name="UHKXXUTJ"/>
      <point x="220" y="535" name="JXYUBJEN"/>
      <point x="220" y="592" type="curve" name="PTNMHOQT"/>
      <point x="166" y="592" name="SRSYDZHD"/>
      <point x="109" y="592" name="STCQUIBG"/>
      <point x="55" y="592" type="curve" name="IGJPHGSE"/>
      <point x="55" y="384" name="ZHCUXJGC"/>
      <point x="55" y="170" name="NOJLBKZJ"/>
      <point x="55" y="-37" type="curve" name="HAXEMUJW"/>
      <point x="109" y="-37" name="YHALPBCB"/>
      <point x="166" y="-37" name="WZIWKWPG"/>
    </contour>
    <contour>
      <point x="322" y="169" type="curve" name="TWPZNNVN"/>
      <point x="258" y="169" name="KEUESRVH"/>
      <point x="216" y="205" name="PSNSAOAH"/>
      <point x="216" y="259" type="curve" smooth="yes" name="GROSUBFO"/>
      <point x="216" y="313" name="AXYBANYT"/>
      <point x="258" y="348" name="QBIVLLFI"/>
      <point x="322" y="348" type="curve" smooth="yes" name="TEZWMNCJ"/>
      <point x="387" y="348" name="QJNBOHTV"/>
      <point x="428" y="313" name="VTKTTEFX"/>
      <point x="428" y="259" type="curve" smooth="yes" name="CPQNSLUJ"/>
      <point x="428" y="204" name="LNRKFEHH"/>
      <point x="387" y="169" name="FKVURWYY"/>
      <point x="322" y="169" type="curve" name="PVZRSNRC"/>
      <point x="322" y="169" name="VMKYCTMQ"/>
      <point x="322" y="169" name="ZGFBSIXF"/>
    </contour>
  </outline>
</glyph>
<glyph name="OE" format="2">
  <advance width="899"/>
  <unicode hex="0152"/>
  <outline>
    <contour>
      <point x="369" y="557" type="curve" smooth="yes" name="HKJRZSYE"/>
      <point x="173" y="557" name="IEFCUYFU"/>
      <point x="28" y="453" name="VRBXTQEH"/>
      <point x="28" y="315" type="curve" smooth="yes" name="CZGXAHEI"/>
      <point x="28" y="178" name="NGXFQRUI"/>
      <point x="173" y="76" name="SFOKCJRO"/>
      <point x="369" y="76" type="curve" smooth="yes" name="TKIYOTWQ"/>
      <point x="526" y="76" name="MDPZWDRO"/>
      <point x="687" y="76" name="NJULKEME"/>
      <point x="844" y="76" type="curve" name="PDOPRZAC"/>
      <point x="844" y="112" name="ACYSDQIA"/>
      <point x="844" y="150" name="IWPXHURY"/>
      <point x="844" y="186" type="curve" name="XGNKRNMN"/>
      <point x="767" y="186" name="CFQIUMPJ"/>
      <point x="688" y="186" name="QFQWEPPL"/>
      <point x="611" y="186" type="curve" name="KTTNOOBF"/>
      <point x="611" y="214" name="EKXUMMCJ"/>
      <point x="611" y="242" name="TAJVUQVX"/>
      <point x="611" y="269" type="curve" name="IWXMUCAH"/>
      <point x="681" y="269" name="QWIHFCZG"/>
      <point x="754" y="269" name="RTLEXSFO"/>
      <point x="824" y="269" type="curve" name="PZRQNUJU"/>
      <point x="824" y="305" name="GSIHMARW"/>
      <point x="824" y="341" name="OILRNCSM"/>
      <point x="824" y="376" type="curve" name="ZZUWYOPX"/>
      <point x="754" y="376" name="UHAIYSOW"/>
      <point x="681" y="376" name="RWINFMIA"/>
      <point x="611" y="376" type="curve" name="YMIMPHOH"/>
      <point x="611" y="400" name="DJLDQAJU"/>
      <point x="611" y="423" name="LQDTOVJW"/>
      <point x="611" y="446" type="curve" name="OUACKHDH"/>
      <point x="688" y="446" name="ZGJRLTPK"/>
      <point x="767" y="446" name="DRDCQRXH"/>
      <point x="844" y="446" type="curve" name="DIBSRXTW"/>
      <point x="844" y="482" name="IMDMAXQR"/>
      <point x="844" y="520" name="DIZHJYQL"/>
      <point x="844" y="557" type="curve" name="BNCIEYJF"/>
      <point x="687" y="557" name="YOVMTDHX"/>
      <point x="526" y="557" name="SVNZNFAG"/>
    </contour>
    <contour>
      <point x="369" y="187" type="curve" smooth="yes" name="SNZYDRHG"/>
      <point x="269" y="187" name="EFMFTJZK"/>
      <point x="205" y="242" name="NYNZIFYV"/>
      <point x="205" y="315" type="curve" smooth="yes" name="QRAWHICT"/>
      <point x="205" y="390" name="XODWWYGE"/>
      <point x="269" y="445" name="CIQWBPFV"/>
      <point x="369" y="445" type="curve" smooth="yes" name="UWVLLVUY"/>
      <point x="391" y="445" name="ZHJDIKUG"/>
      <point x="414" y="445" name="KZTHWMIJ"/>
      <point x="436" y="445" type="curve" name="CKPTKMXY"/>
      <point x="436" y="360" name="HLOSMFDX"/>
      <point x="436" y="272" name="PKMESVZF"/>
      <point x="436" y="187" type="curve" name="OSDBXQJT"/>
      <point x="414" y="187" name="FCGICFHT"/>
      <point x="391" y="187" name="MRSJCXUA"/>
    </contour>
  </outline>
</glyph>
<glyph name="quotedblright" format="2">
  <advance width="518"/>
  <unicode hex="201D"/>
  <outline>
    <contour>
      <point x="264" y="357" type="curve" name="NZYGFBJG"/>
      <point x="312" y="357" name="CBNJFSAY"/>
      <point x="360" y="357" name="DDCYOLSX"/>
      <point x="408" y="357" type="curve" name="XTXQYXXG"/>
      <point x="432" y="423" name="FOAAMMGQ"/>
      <point x="458" y="491" name="KBNEWMPF"/>
      <point x="482" y="557" type="curve" name="XSOHGEIJ"/>
      <point x="426" y="557" name="GYABYALI"/>
      <point x="369" y="557" name="CSNTMVVD"/>
      <point x="313" y="557" type="curve" name="YQGUZVMY"/>
      <point x="297" y="491" name="BNXFQBPZ"/>
      <point x="280" y="423" name="JTSWZTQF"/>
    </contour>
    <contour>
      <point x="43" y="357" type="curve" name="IKNSLRJI"/>
      <point x="91" y="357" name="VBDDSRPL"/>
      <point x="139" y="357" name="LTUUQWWR"/>
      <point x="187" y="357" type="curve" name="JMURHTKC"/>
      <point x="211" y="423" name="VPIYFFEI"/>
      <point x="237" y="491" name="KBSGNEZE"/>
      <point x="261" y="557" type="curve" name="DFXOQFFQ"/>
      <point x="205" y="557" name="ONKBEKDA"/>
      <point x="148" y="557" name="KUCBEZJL"/>
      <point x="92" y="557" type="curve" name="HBHUVTSO"/>
      <point x="76" y="491" name="AVSRPIEA"/>
      <point x="59" y="423" name="EXKGOQCO"/>
    </contour>
  </outline>
</glyph>
<glyph name="bullet" format="2">
  <advance width="552"/>
  <unicode hex="2022"/>
  <outline>
    <contour>
      <point x="277" y="161" type="curve" name="BCFDCCRP"/>
      <point x="380" y="161" name="KUOSREVV"/>
      <point x="466" y="221" name="UUPRUGGE"/>
      <point x="466" y="294" type="curve" smooth="yes" name="FCIJGGWA"/>
      <point x="466" y="365" name="ZJNOSYBX"/>
      <point x="380" y="424" name="WAYAWEIX"/>
      <point x="277" y="424" type="curve" smooth="yes" name="UQDDRVLY"/>
      <point x="171" y="424" name="CBQATSDI"/>
      <point x="86" y="365" name="RRHSVSGM"/>
      <point x="86" y="294" type="curve" smooth="yes" name="XFDHBLRZ"/>
      <point x="86" y="221" name="BJYOEEYT"/>
      <point x="171" y="161" name="JZXLMMKS"/>
      <point x="277" y="161" type="curve" name="TYZTIZCE"/>
      <point x="277" y="161" name="BMKHWZVV"/>
      <point x="277" y="161" name="XJDTGIHQ"/>
    </contour>
  </outline>
</glyph>
<glyph name="guilsinglright" format="2">
  <advance width="427"/>
  <unicode hex="203A"/>
  <outline>
    <contour>
      <point x="387" y="197" type="curve" name="NCNCOHPG"/>
      <point x="387" y="238" name="TDVXEPPL"/>
      <point x="387" y="281" name="IGQJKTLG"/>
      <point x="387" y="322" type="curve" name="BVMEKEMB"/>
      <point x="276" y="367" name="VEUEYXDY"/>
      <point x="161" y="413" name="IQUAZIDJ"/>
      <point x="50" y="458" type="curve" name="EEQZAZTF"/>
      <point x="50" y="414" name="MRUTBBNZ"/>
      <point x="50" y="369" name="DLVBVNGG"/>
      <point x="50" y="326" type="curve" name="PXANKKHP"/>
      <point x="108" y="303" name="AUJWVMPW"/>
      <point x="169" y="281" name="AKPWLXNM"/>
      <point x="227" y="258" type="curve" name="ZQPHGQSL"/>
      <point x="169" y="236" name="LODNJPNP"/>
      <point x="108" y="214" name="HQDRRRNT"/>
      <point x="50" y="192" type="curve" name="JVCHNQOT"/>
      <point x="50" y="149" name="XVPQHYIN"/>
      <point x="50" y="105" name="GLOBIBTQ"/>
      <point x="50" y="62" type="curve" name="SRIVYUQA"/>
      <point x="161" y="107" name="LOWIAVWQ"/>
      <point x="276" y="153" name="HYHBLICX"/>
    </contour>
  </outline>
</glyph>
